<svg xmlns="http://www.w3.org/2000/svg" width="40" height="40" viewBox="0 0 40 40">
  <path fill="#13B5EA" d="M19.962 39.425c11.024 0 19.96-8.73 19.96-19.496 0-10.768-8.935-19.496-19.96-19.496S0 9.161 0 19.93c0 10.767 8.937 19.496 19.962 19.496"/>
  <path fill="#FFF" d="M9.556 19.877l3.406-3.337a.583.583 0 0 0 .176-.417.604.604 0 0 0-.61-.597.608.608 0 0 0-.435.178L8.69 19.026 5.27 15.698a.618.618 0 0 0-.431-.172.603.603 0 0 0-.61.596c0 .16.065.312.182.424l3.407 3.326L4.414 23.2a.593.593 0 0 0-.185.427c0 .33.274.596.611.596.163 0 .316-.06.431-.173l3.413-3.33 3.4 3.317c.121.121.276.186.443.186.336 0 .61-.267.61-.596a.582.582 0 0 0-.178-.42l-3.404-3.333v.003zm20.25 0c0 .597.497 1.082 1.11 1.082.61 0 1.108-.485 1.108-1.083s-.498-1.083-1.108-1.083c-.611 0-1.108.485-1.108 1.083h-.003zm-2.103 0c0-1.73 1.44-3.138 3.213-3.138 1.768 0 3.211 1.408 3.211 3.137 0 1.73-1.442 3.137-3.211 3.137-1.772 0-3.213-1.406-3.213-3.137zm-1.264 0c0 2.408 2.009 4.37 4.477 4.37 2.467 0 4.476-1.96 4.476-4.37s-2.009-4.371-4.476-4.371c-2.469 0-4.477 1.96-4.477 4.371zm-.317-4.297h-.187c-.564 0-1.108.173-1.563.516a.616.616 0 0 0-.599-.468.597.597 0 0 0-.604.593l.002 7.362c0 .327.275.593.609.593.336 0 .61-.266.61-.595v-4.527c0-1.508.142-2.118 1.465-2.28.125-.014.256-.012.258-.012.36-.013.619-.256.619-.585a.606.606 0 0 0-.614-.596h.004zM14.4 19.158c0-.018.002-.035.003-.05.353-1.37 1.623-2.381 3.133-2.381 1.529 0 2.809 1.034 3.147 2.428H14.4v.003zm7.531-.113c-.263-1.216-.944-2.215-1.982-2.857a4.597 4.597 0 0 0-4.986.13 4.385 4.385 0 0 0-1.888 3.588c0 .351.045.706.134 1.055.451 1.734 1.978 3.047 3.799 3.265.54.064 1.067.035 1.609-.104.47-.113.922-.296 1.338-.558.433-.271.795-.63 1.147-1.06.005-.008.013-.014.02-.023.243-.294.198-.716-.069-.915-.226-.169-.604-.237-.901.135-.064.09-.136.182-.213.273a3.511 3.511 0 0 1-.884.695 3.29 3.29 0 0 1-1.502.37c-1.776-.02-2.726-1.23-3.064-2.093a3.157 3.157 0 0 1-.136-.503l-.01-.091h6.374c.873-.02 1.342-.621 1.213-1.309l.001.002z"/>
</svg>
